<?xml version="1.0" encoding="UTF-8"?>
<svg width="100px" height="100px" viewBox="0 0 100 100" version="1.1" xmlns="http://www.w3.org/2000/svg" xmlns:xlink="http://www.w3.org/1999/xlink">
    <!-- Generator: sketchtool 50.2 (55047) - http://www.bohemiancoding.com/sketch -->
    <title>FADFDFAB-40FC-43D1-80D5-90EF87F96339</title>
    <desc>Created with sketchtool.</desc>
    <defs></defs>
    <g id="Symbols" stroke="none" stroke-width="1" fill="none" fill-rule="evenodd">
        <g id="Fausset">
            <g transform="translate(5.000000, 5.000000)">
                <circle id="Oval" fill="#F16C65" cx="45" cy="45" r="45"></circle>
                <text id="FAUCET" font-family="Helvetica-Bold, Helvetica" font-size="10" font-weight="bold" fill="#FFFFFF">
                    <tspan x="27" y="72">FAUCET</tspan>
                </text>
                <g id="outline-play_for_work-24px" transform="translate(20.000000, 15.000000)">
                    <g id="Bounding_Boxes">
                        <polygon id="Shape" points="0 0 50 0 50 50 0 50"></polygon>
                    </g>
                    <g id="Outline" transform="translate(13.000000, 10.000000)" fill="#FFFFFF" fill-rule="nonzero">
                        <path d="M10.4166667,0 L10.4166667,11.5526667 L3.125,11.5526667 L12.5,20.8526667 L21.875,11.5526667 L14.5833333,11.5526667 L14.5833333,0 L10.4166667,0 Z M0,18.6 C0,25.4406667 5.60416667,31 12.5,31 C19.3958333,31 25,25.4406667 25,18.6 L20.8333333,18.6 C20.8333333,23.1673333 17.1041667,26.8666667 12.5,26.8666667 C7.89583333,26.8666667 4.16666667,23.1673333 4.16666667,18.6 L0,18.6 Z" id="Shape"></path>
                    </g>
                </g>
            </g>
        </g>
    </g>
</svg>