<?xml version="1.0" encoding="UTF-8"?>
<svg width="42px" height="42px" viewBox="0 0 42 42" version="1.1" xmlns="http://www.w3.org/2000/svg" xmlns:xlink="http://www.w3.org/1999/xlink">
    <!-- Generator: sketchtool 50.2 (55047) - http://www.bohemiancoding.com/sketch -->
    <title>B6518449-D59C-40E5-8DFE-E435882F7282</title>
    <desc>Created with sketchtool.</desc>
    <defs></defs>
    <g id="Page-1" stroke="none" stroke-width="1" fill="none" fill-rule="evenodd">
        <g id="assets" transform="translate(-735.000000, -508.000000)">
            <g id="ico_search_simple" transform="translate(736.000000, 509.000000)">
                <g id="search">
                    <circle id="Oval-2" stroke="#C0C0C0" cx="20" cy="20" r="20"></circle>
                    <g id="outline-search-24px" transform="translate(6.000000, 6.000000)">
                        <g id="Bounding_Boxes">
                            <polygon id="Shape" points="0 0 28 0 28 28 0 28"></polygon>
                        </g>
                        <g id="Outline" transform="translate(3.888889, 3.888889)" fill="#000000" fill-rule="nonzero">
                            <path d="M14.5833333,12.8333333 L13.6616667,12.8333333 L13.335,12.5183333 C14.4783333,11.1883333 15.1666667,9.46166667 15.1666667,7.58333333 C15.1666667,3.395 11.7716667,0 7.58333333,0 C3.395,0 0,3.395 0,7.58333333 C0,11.7716667 3.395,15.1666667 7.58333333,15.1666667 C9.46166667,15.1666667 11.1883333,14.4783333 12.5183333,13.335 L12.8333333,13.6616667 L12.8333333,14.5833333 L18.6666667,20.405 L20.405,18.6666667 L14.5833333,12.8333333 Z M7.58333333,12.8333333 C4.67833333,12.8333333 2.33333333,10.4883333 2.33333333,7.58333333 C2.33333333,4.67833333 4.67833333,2.33333333 7.58333333,2.33333333 C10.4883333,2.33333333 12.8333333,4.67833333 12.8333333,7.58333333 C12.8333333,10.4883333 10.4883333,12.8333333 7.58333333,12.8333333 Z" id="Shape"></path>
                        </g>
                    </g>
                </g>
            </g>
        </g>
    </g>
</svg>