<?xml version="1.0" encoding="UTF-8"?>
<svg width="29px" height="28px" viewBox="0 0 29 28" version="1.1" xmlns="http://www.w3.org/2000/svg" xmlns:xlink="http://www.w3.org/1999/xlink">
    <!-- Generator: sketchtool 50.2 (55047) - http://www.bohemiancoding.com/sketch -->
    <title>2BE40EBC-752C-4091-9A65-FC68856EC524</title>
    <desc>Created with sketchtool.</desc>
    <defs></defs>
    <g id="Symbols" stroke="none" stroke-width="1" fill="none" fill-rule="evenodd">
        <g id="ico_search_s">
            <g id="outline-search-24px">
                <g id="Bounding_Boxes">
                    <polygon id="Shape" points="0 0 28.0539499 0 28.0539499 28 0 28"></polygon>
                </g>
                <g id="Outline" transform="translate(3.896382, 3.888889)" fill="#FFFFFF" fill-rule="nonzero">
                    <path d="M14.6114322,12.8333333 L13.6879897,12.8333333 L13.3606936,12.5183333 C14.5062299,11.1883333 15.1958895,9.46166667 15.1958895,7.58333333 C15.1958895,3.395 11.7943481,0 7.59794477,0 C3.40154143,0 0,3.395 0,7.58333333 C0,11.7716667 3.40154143,15.1666667 7.59794477,15.1666667 C9.47989724,15.1666667 11.2098908,14.4783333 12.5424534,13.335 L12.8580604,13.6616667 L12.8580604,14.5833333 L18.7026333,20.405 L20.444316,18.6666667 L14.6114322,12.8333333 Z M7.59794477,12.8333333 C4.68734746,12.8333333 2.33782916,10.4883333 2.33782916,7.58333333 C2.33782916,4.67833333 4.68734746,2.33333333 7.59794477,2.33333333 C10.5085421,2.33333333 12.8580604,4.67833333 12.8580604,7.58333333 C12.8580604,10.4883333 10.5085421,12.8333333 7.59794477,12.8333333 Z" id="Shape"></path>
                </g>
            </g>
        </g>
    </g>
</svg>