<?xml version="1.0" encoding="UTF-8"?>
<svg width="30px" height="28px" viewBox="0 0 30 28" version="1.1" xmlns="http://www.w3.org/2000/svg" xmlns:xlink="http://www.w3.org/1999/xlink">
    <!-- Generator: sketchtool 50.2 (55047) - http://www.bohemiancoding.com/sketch -->
    <title>4EC7DEC8-4BE5-4B95-92F3-0205DA079DEC</title>
    <desc>Created with sketchtool.</desc>
    <defs>
        <polygon id="path-1" points="0 0 30 0 30 28 0 28"></polygon>
    </defs>
    <g id="Page-1" stroke="none" stroke-width="1" fill="none" fill-rule="evenodd">
        <g id="assets" transform="translate(-314.000000, -276.000000)">
            <g id="ico_account" transform="translate(314.000000, 276.000000)">
                <g id="Group-3">
                    <mask id="mask-2" fill="white">
                        <use xlink:href="#path-1"></use>
                    </mask>
                    <g id="Clip-2"></g>
                    <path d="M27.9322894,18.3002985 L27.7073225,18.3002985 L25.6396118,18.3002985 L16.3531098,18.3002985 L16.3531098,9.10626866 L25.6396118,9.10626866 L27.7073225,9.10626866 L27.9322894,9.10626866 L27.9322894,18.3002985 Z M25.6396118,25.9104478 L2.06771063,25.9104478 L2.06771063,2.08955224 L25.6396118,2.08955224 L25.6396118,7.01671642 L15.9395677,7.01671642 C15.029775,7.01671642 14.2853992,7.76895522 14.2853992,8.68835821 L14.2853992,18.718209 C14.2853992,19.6376119 15.029775,20.3898507 15.9395677,20.3898507 L25.6396118,20.3898507 L25.6396118,25.9104478 Z M28.3458315,7.01671642 L27.7073225,7.01671642 L27.7073225,1.67164179 C27.7073225,0.752238806 26.9629466,0 26.0531539,0 L1.6541685,0 C0.744375827,0 0,0.752238806 0,1.67164179 L0,26.3283582 C0,27.2477612 0.744375827,28 1.6541685,28 L26.0531539,28 C26.9629466,28 27.7073225,27.2477612 27.7073225,26.3283582 L27.7073225,20.3898507 L28.3458315,20.3898507 C29.2556242,20.3898507 30,19.6376119 30,18.718209 L30,8.68835821 C30,7.76895522 29.2556242,7.01671642 28.3458315,7.01671642 Z" id="Fill-1" fill="#000000" mask="url(#mask-2)"></path>
                    <path d="M21.9642857,11.5862069 C20.4848214,11.5862069 19.2857143,12.6667816 19.2857143,14 C19.2857143,15.3332184 20.4848214,16.4137931 21.9642857,16.4137931 C23.44375,16.4137931 24.6428571,15.3332184 24.6428571,14 C24.6428571,12.6667816 23.44375,11.5862069 21.9642857,11.5862069" id="Fill-4" fill="#000000" mask="url(#mask-2)"></path>
                </g>
            </g>
        </g>
    </g>
</svg>