<?xml version="1.0" encoding="UTF-8"?>
<svg width="30px" height="30px" viewBox="0 0 30 30" version="1.1" xmlns="http://www.w3.org/2000/svg" xmlns:xlink="http://www.w3.org/1999/xlink">
    <!-- Generator: sketchtool 50.2 (55047) - http://www.bohemiancoding.com/sketch -->
    <title>1A1E9A79-BE05-4599-8DF8-ECA281E951DD</title>
    <desc>Created with sketchtool.</desc>
    <defs></defs>
    <g id="Symbols" stroke="none" stroke-width="1" fill="none" fill-rule="evenodd">
        <g id="ico_all_menu">
            <g id="outline-apps-24px">
                <g id="Bounding_Boxes">
                    <polygon id="Shape" points="0 0 30 0 30 30 0 30"></polygon>
                </g>
                <g id="Outline_1_" transform="translate(4.615385, 4.615385)" fill="#000000" fill-rule="nonzero">
                    <path d="M0,5 L5,5 L5,0 L0,0 L0,5 Z M7.5,20 L12.5,20 L12.5,15 L7.5,15 L7.5,20 Z M0,20 L5,20 L5,15 L0,15 L0,20 Z M0,12.5 L5,12.5 L5,7.5 L0,7.5 L0,12.5 Z M7.5,12.5 L12.5,12.5 L12.5,7.5 L7.5,7.5 L7.5,12.5 Z M15,0 L15,5 L20,5 L20,0 L15,0 Z M7.5,5 L12.5,5 L12.5,0 L7.5,0 L7.5,5 Z M15,12.5 L20,12.5 L20,7.5 L15,7.5 L15,12.5 Z M15,20 L20,20 L20,15 L15,15 L15,20 Z" id="Shape"></path>
                </g>
            </g>
        </g>
    </g>
</svg>