<?xml version="1.0" encoding="UTF-8"?>
<svg width="30px" height="32px" viewBox="0 0 30 32" version="1.1" xmlns="http://www.w3.org/2000/svg" xmlns:xlink="http://www.w3.org/1999/xlink">
    <!-- Generator: sketchtool 50.2 (55047) - http://www.bohemiancoding.com/sketch -->
    <title>E586F578-C480-4971-9EAD-ED534C2BDA25</title>
    <desc>Created with sketchtool.</desc>
    <defs></defs>
    <g id="Symbols" stroke="none" stroke-width="1" fill="none" fill-rule="evenodd">
        <g id="ico_block_detal" stroke="#0B0B0B" stroke-width="2">
            <g id="ico_block">
                <path d="M28.5054681,7.88467264 L28.5086644,7.89105536 C28.5075685,7.88896737 28.5065029,7.88693797 28.5054681,7.88496668 L28.5054681,7.88467264 Z M28.4915557,7.85810441 C28.4724908,7.82005146 28.4807128,7.82562908 28.5319211,7.8646849 C28.5099305,7.84924868 28.4224504,7.78673787 28.4058527,7.77360113 L14.8450368,1.02105066 C14.7886956,0.992983114 14.7167725,0.992983114 14.6603101,1.02111105 L1.08107758,7.78349987 C1.10927188,7.76898143 1.11477839,7.76523969 1.1027091,7.77423888 C1.10069002,7.7757445 1.10069002,7.7757445 1.09855211,7.77733881 C1.0793093,7.79169174 1.0793093,7.79169174 1.08181929,7.78924756 C1.0336984,7.82675471 1.02325742,7.8353998 1.03767589,7.80516895 C1.01512264,7.85462897 1.01393795,7.85955676 1.01147096,7.87805332 C1.00568329,7.91830256 1.00211184,7.94415918 1,7.95868288 L1,24.1265222 C1,24.1528135 1.02219383,24.1876481 1.06905034,24.2111457 L14.5951014,30.9500163 C14.6937095,30.9905978 14.7324223,31 14.7527341,31 C14.768455,31 14.7931367,30.9940119 14.8191529,30.9822657 C14.8185216,30.9825664 20.753731,28.0317161 28.4355385,24.2123579 C28.4837802,24.1881699 28.5054681,24.1540071 28.5054681,24.1265222 L28.5054681,7.94665008 C28.4961083,7.88388002 28.4922968,7.86314572 28.4915557,7.85810441 Z M1.03767589,7.80516895 C1.04096638,7.79826985 1.0455516,7.78934603 1.05127915,7.77827847 C1.04722254,7.78679469 1.04360991,7.79439404 1.0403887,7.80120513 Z M1,7.95868288 C0.993888992,8.00071001 1,7.94784133 1,7.87421442 L1,7.95868288 Z" id="Fill-1"></path>
                <path d="M6.89189189,11.6 L22.2972973,11.6" id="Line" stroke-linecap="square"></path>
                <path d="M6.89189189,16.4 L22.2972973,16.4" id="Line" stroke-linecap="square"></path>
                <path d="M6.89189189,21.2 L22.2972973,21.2" id="Line" stroke-linecap="square"></path>
            </g>
        </g>
    </g>
</svg>