<?xml version="1.0" encoding="UTF-8"?>
<svg width="36px" height="40px" viewBox="0 0 36 40" version="1.1" xmlns="http://www.w3.org/2000/svg" xmlns:xlink="http://www.w3.org/1999/xlink">
    <!-- Generator: sketchtool 50.2 (55047) - http://www.bohemiancoding.com/sketch -->
    <title>44252E06-CDC9-4189-BB0E-326A65B6A55F</title>
    <desc>Created with sketchtool.</desc>
    <defs></defs>
    <g id="Symbols" stroke="none" stroke-width="1" fill="none" fill-rule="evenodd">
        <g id="icon_transaction_on" fill="#F16C65">
            <g id="Group-2">
                <path d="M33.4647887,36.4507239 C33.4647887,36.8677065 33.1240563,37.2061272 32.7042254,37.2061272 L3.29577465,37.2061272 C2.87594366,37.2061272 2.53521127,36.8677065 2.53521127,36.4507239 L2.53521127,6.91345037 C2.53521127,6.50452542 2.88405634,6.15804714 3.29577465,6.15804714 L12.1892958,6.15804714 L13.6779718,6.15804714 L22.3808451,6.15804714 L23.7863662,6.15804714 L32.7042254,6.15804714 C33.1240563,6.15804714 33.4647887,6.4984822 33.4647887,6.91345037 L33.4647887,36.4507239 Z M17.987831,2.51801077 C18.9998873,2.51801077 19.8943099,2.94909422 20.4621972,3.64003637 L15.5114366,3.64003637 C16.0793239,2.94909422 16.9737465,2.51801077 17.987831,2.51801077 Z M23.315831,3.64003637 C22.5370141,1.50677765 20.423662,0 17.987831,0 C15.5499718,0 13.4366197,1.50677765 12.6578028,3.64003637 L3.29577465,3.64003637 C1.47853521,3.64003637 0,5.10854025 0,6.91345037 L0,36.4507239 C0,38.255634 1.47853521,39.7241379 3.29577465,39.7241379 L32.7042254,39.7241379 C34.5214648,39.7241379 36,38.255634 36,36.4507239 L36,6.91345037 C36,5.10854025 34.5214648,3.64003637 32.7042254,3.64003637 L23.315831,3.64003637 Z" id="Fill-1"></path>
                <polygon id="Fill-3" points="7.44827586 14.8965517 27.3103448 14.8965517 27.3103448 12.4137931 7.44827586 12.4137931"></polygon>
                <polygon id="Fill-5" points="7.44827586 22.3448276 27.3103448 22.3448276 27.3103448 19.862069 7.44827586 19.862069"></polygon>
                <polygon id="Fill-6" points="7.44827586 31.0344828 21.1034483 31.0344828 21.1034483 28.5517241 7.44827586 28.5517241"></polygon>
            </g>
        </g>
    </g>
</svg>