<svg xmlns="http://www.w3.org/2000/svg" width="37" height="40" viewBox="0 0 37 40">
    <g fill="#000" fill-rule="evenodd">
        <path d="M33.465 36.45c0 .418-.34.756-.76.756H3.294a.758.758 0 0 1-.76-.755V6.913c0-.408.35-.755.76-.755h29.409c.42 0 .76.34.76.755v29.538zM17.988 2.519c1.012 0 1.906.431 2.474 1.122h-4.95c.567-.69 1.462-1.122 2.476-1.122zM32.704 3.64h-9.388C22.537 1.507 20.424 0 17.988 0c-2.438 0-4.551 1.507-5.33 3.64H3.296C1.479 3.64 0 5.109 0 6.913v29.538c0 1.805 1.479 3.273 3.296 3.273h29.408c1.817 0 3.296-1.468 3.296-3.273V6.913c0-1.804-1.479-3.273-3.296-3.273z"/>
        <path d="M7.448 14.897H27.31v-2.483H7.448zM7.448 22.345H27.31v-2.483H7.448zM7.448 31.034h13.655v-2.482H7.448z"/>
    </g>
</svg>
