<?xml version="1.0" encoding="UTF-8"?>
<svg width="36px" height="40px" viewBox="0 0 36 40" version="1.1" xmlns="http://www.w3.org/2000/svg" xmlns:xlink="http://www.w3.org/1999/xlink">
    <!-- Generator: sketchtool 50.2 (55047) - http://www.bohemiancoding.com/sketch -->
    <title>64810428-F4E3-4ED2-90DD-8D8170C6BCFE</title>
    <desc>Created with sketchtool.</desc>
    <defs></defs>
    <g id="Symbols" stroke="none" stroke-width="1" fill="none" fill-rule="evenodd">
        <g id="ico_block" fill="#000000">
            <path d="M18.9488708,36.3387739 L18.9488708,18.9755749 L32.3727526,12.1024885 L32.3727526,29.3201961 L18.9488708,36.3387739 Z M2.76249453,12.1024885 L16.1863763,18.9755749 L16.1863763,36.3369322 L2.76249453,29.3201961 L2.76249453,12.1024885 Z M17.5676236,2.94021501 L30.7484058,9.82987638 L17.5676236,16.5795714 L4.38868298,9.82987638 L17.5676236,2.94021501 Z M35.1278805,9.7838348 C35.1260388,9.74515988 35.1168305,9.70648496 35.1113055,9.6696517 C35.0928889,9.53152697 35.0578973,9.40445222 35.0026474,9.28290246 C34.9915974,9.2608025 34.9934391,9.23501922 34.9842308,9.21291927 C34.9787058,9.20371095 34.9658141,9.1963443 34.9602891,9.18529432 C34.8829393,9.04348627 34.7834895,8.91456986 34.6600981,8.8077534 C34.6343148,8.78565345 34.6066898,8.77092014 34.5809066,8.75250351 C34.5201317,8.70462027 34.4630401,8.65489537 34.3948986,8.61806211 L18.2085223,0.157462188 C17.8070398,-0.0524873961 17.3282074,-0.0524873961 16.9267248,0.157462188 L0.742190198,8.61806211 C0.674048666,8.65489537 0.616957112,8.70462027 0.556182233,8.75066185 C0.53039895,8.77092014 0.500932342,8.78565345 0.47514906,8.80959506 C0.3535993,8.91641152 0.254149497,9.04348627 0.17679965,9.18529432 C0.169432998,9.1963443 0.15838302,9.20371095 0.152858031,9.21291927 C0.141808053,9.23501922 0.143649716,9.2608025 0.134441401,9.28290246 C0.0773498469,9.40445222 0.0423582495,9.53152697 0.0257832823,9.6696517 C0.0202582932,9.70648496 0.0110499781,9.74515988 0.00920831511,9.7838348 C0.00736665209,9.8040931 0,9.82435139 0,9.84276802 L0,30.1581528 C0,30.6719768 0.287299431,31.1434425 0.742190198,31.3828587 L16.9267248,39.8434586 C16.9432998,39.8508253 16.9617164,39.8489836 16.9764497,39.8563503 C17.1569327,39.9429084 17.3539907,40 17.5676236,40 C17.7812565,40 17.9783144,39.9429084 18.1587974,39.8563503 C18.1735307,39.8489836 18.1919473,39.8508253 18.2085223,39.8434586 L34.3948986,31.3828587 C34.8497894,31.1434425 35.1352471,30.6719768 35.1352471,30.1581528 L35.1352471,9.84276802 C35.1352471,9.82435139 35.1278805,9.8040931 35.1278805,9.7838348 Z" id="Fill-1"></path>
        </g>
    </g>
</svg>