<svg xmlns="http://www.w3.org/2000/svg" width="37" height="35" viewBox="0 0 37 35">
    <g fill="none" fill-rule="evenodd" stroke="#FF9F00" stroke-width="2">
        <path d="M18.5 4.604h16.188S37 4.604 37 6.907v4.604s-2.313 4.605-6.938 4.605M16.188 25.324v4.605M20.813 25.324v4.605M25.438 29.929H11.563c-2.544 0-4.626 2.072-4.626 4.604h23.125c0-2.532-2.08-4.604-4.625-4.604zM18.5 4.604H2.312S0 4.604 0 6.907v4.604s2.313 4.605 6.938 4.605"/>
        <path d="M6.938 18.418c0 3.798 3.121 6.906 6.937 6.906h9.25c3.816 0 6.938-3.108 6.938-6.906V0H6.938v18.418z"/>
    </g>
</svg>
