<?xml version="1.0" encoding="UTF-8"?>
<svg width="20px" height="13px" viewBox="0 0 20 13" version="1.1" xmlns="http://www.w3.org/2000/svg" xmlns:xlink="http://www.w3.org/1999/xlink">
    <!-- Generator: sketchtool 50.2 (55047) - http://www.bohemiancoding.com/sketch -->
    <title>555F2C0B-F543-462F-9A8A-A4C8226DD39D</title>
    <desc>Created with sketchtool.</desc>
    <defs>
        <polygon id="path-1" points="0.0002 0.70992 19.91 0.70992 19.91 5.99952 0.0002 5.99952"></polygon>
        <polygon id="path-3" points="0.0002 0.6902 19.91 0.6902 19.91 5.83286667 0.0002 5.83286667"></polygon>
        <polygon id="path-5" points="0.0002 0.6902 19.91 0.6902 19.91 5.83286667 0.0002 5.83286667"></polygon>
    </defs>
    <g id="Symbols" stroke="none" stroke-width="1" fill="none" fill-rule="evenodd">
        <g id="icon_amount">
            <g id="Group">
                <path d="M10.5,13 C4.3026441,13 1.0321523,11.5985915 1,11 C1.0321523,10.4014085 4.3026441,9 10.5,9 C16.6973559,9 19.9678477,10.4014085 20,11 C19.9678477,11.5985915 16.6973559,13 10.5,13" id="Fill-1" fill="#FFFFFF"></path>
                <path d="M10.5,11 C4.3026441,11 1.0321523,9.59859155 1,9 C1.0321523,8.40140845 4.3026441,7 10.5,7 C16.6973559,7 19.9678477,8.40140845 20,9 C19.9678477,9.59859155 16.6973559,11 10.5,11" id="Fill-6" fill="#FFFFFF"></path>
                <g id="Group-10" transform="translate(0.000000, 6.000000)">
                    <mask id="mask-2" fill="white">
                        <use xlink:href="#path-1"></use>
                    </mask>
                    <g id="Clip-9"></g>
                    <path d="M9.9552,0.70992 C4.4572,0.70992 0.0002,1.89432 0.0002,3.35472 C0.0002,4.81512 4.4572,5.99952 9.9552,5.99952 C15.4532,5.99952 19.9102,4.81512 19.9102,3.35472 C19.9102,1.89432 15.4532,0.70992 9.9552,0.70992 M9.9552,1.90992 C14.6332,1.90992 17.6122,2.74632 18.6302,3.35472 C17.6122,3.96312 14.6332,4.79952 9.9552,4.79952 C5.2782,4.79952 2.2972,3.96312 1.2812,3.35472 C2.2972,2.74632 5.2782,1.90992 9.9552,1.90992" id="Fill-8" fill="#000000" mask="url(#mask-2)"></path>
                </g>
                <path d="M10.5,8 C4.3026441,8 1.0321523,6.59859155 1,6 C1.0321523,5.40140845 4.3026441,4 10.5,4 C16.6973559,4 19.9678477,5.40140845 20,6 C19.9678477,6.59859155 16.6973559,8 10.5,8" id="Fill-11" fill="#FFFFFF"></path>
                <g id="Group-15" transform="translate(0.000000, 3.000000)">
                    <mask id="mask-4" fill="white">
                        <use xlink:href="#path-3"></use>
                    </mask>
                    <g id="Clip-14"></g>
                    <path d="M9.9552,0.6902 C4.4572,0.6902 0.0002,1.8417 0.0002,3.26153333 C0.0002,4.68136667 4.4572,5.83286667 9.9552,5.83286667 C15.4532,5.83286667 19.9102,4.68136667 19.9102,3.26153333 C19.9102,1.8417 15.4532,0.6902 9.9552,0.6902 M9.9552,1.85686667 C14.6332,1.85686667 17.6122,2.67003333 18.6302,3.26153333 C17.6122,3.85303333 14.6332,4.6662 9.9552,4.6662 C5.2782,4.6662 2.2972,3.85303333 1.2812,3.26153333 C2.2972,2.67003333 5.2782,1.85686667 9.9552,1.85686667" id="Fill-13" fill="#000000" mask="url(#mask-4)"></path>
                </g>
                <path d="M10.5,6 C4.3026441,6 1.0321523,4.59859155 1,4 C1.0321523,3.40140845 4.3026441,2 10.5,2 C16.6973559,2 19.9678477,3.40140845 20,4 C19.9678477,4.59859155 16.6973559,6 10.5,6" id="Fill-16" fill="#FFFFFF"></path>
                <g id="Group-20">
                    <mask id="mask-6" fill="white">
                        <use xlink:href="#path-5"></use>
                    </mask>
                    <g id="Clip-19"></g>
                    <path d="M9.9552,0.6902 C4.4572,0.6902 0.0002,1.8417 0.0002,3.26153333 C0.0002,4.68136667 4.4572,5.83286667 9.9552,5.83286667 C15.4532,5.83286667 19.9102,4.68136667 19.9102,3.26153333 C19.9102,1.8417 15.4532,0.6902 9.9552,0.6902 M9.9552,1.85686667 C14.6332,1.85686667 17.6122,2.67003333 18.6302,3.26153333 C17.6122,3.85303333 14.6332,4.6662 9.9552,4.6662 C5.2782,4.6662 2.2972,3.85303333 1.2812,3.26153333 C2.2972,2.67003333 5.2782,1.85686667 9.9552,1.85686667" id="Fill-18" fill="#000000" mask="url(#mask-6)"></path>
                </g>
            </g>
        </g>
    </g>
</svg>