<?xml version="1.0" encoding="UTF-8"?>
<svg width="165px" height="29px" viewBox="0 0 165 29" version="1.1" xmlns="http://www.w3.org/2000/svg" xmlns:xlink="http://www.w3.org/1999/xlink">
    <!-- Generator: sketchtool 50.2 (55047) - http://www.bohemiancoding.com/sketch -->
    <title>11A6165F-3562-4752-A9EA-7B3ADE079E73</title>
    <desc>Created with sketchtool.</desc>
    <defs></defs>
    <g id="Page-1" stroke="none" stroke-width="1" fill="none" fill-rule="evenodd">
        <g id="assets" transform="translate(-648.000000, -156.000000)" fill="#0B7AFF">
            <g id="logo" transform="translate(648.000000, 156.000000)">
                <g id="Group">
                    <polygon id="Fill-1" points="44.7691226 18.0455163 44.1025578 18.0455163 38.3845002 10.6382635 38.3845002 23 35 23 35 6 38.8977783 6 44.5130642 13.309912 50.1283501 6 54 6 54 23 50.6149192 23 50.6149192 10.6624612"></polygon>
                    <polygon id="Fill-2" points="56 23 56 6 69 6 69 9.10875683 59.25 9.10875683 59.25 13.0187623 68.652809 13.0187623 68.652809 16.0059845 59.25 16.0059845 59.25 19.8428493 69 19.8428493 69 23"></polygon>
                    <path d="M79.6003043,19.9158903 C83.3441904,19.9158903 84.8560922,17.220044 84.8560922,14.5241977 C84.8560922,11.8047037 83.3202783,9.03571429 79.6003043,9.03571429 L76.1444513,9.03571429 L76.1444513,19.9158903 L79.6003043,19.9158903 Z M88,14.5241977 C88,18.7741977 85.4082461,23 79.6003043,23 L73,23 L73,6 L79.6003043,6 C85.4316148,6 88,10.25 88,14.5241977 Z" id="Fill-3"></path>
                    <polygon id="Fill-5" points="91 23 95 23 95 6 91 6"></polygon>
                    <path d="M106.384035,12.8246369 C108.480329,12.8246369 109.16194,11.9744444 109.16194,11.0027173 C109.16194,10.2256656 108.504918,8.91463138 106.384035,8.91463138 L101.283394,8.91463138 L101.283394,12.8246369 L106.384035,12.8246369 Z M106.384035,20.0127778 C107.722095,20.0127778 109.692017,19.5755831 109.692017,17.9730858 C109.692017,16.4189823 107.722095,15.6419306 106.384035,15.6419306 L101.283394,15.6419306 L101.283394,20.0127778 L106.384035,20.0127778 Z M112.469922,10.9301265 C112.469922,12.2659075 111.813472,13.5043509 110.171775,14.2088118 C112.242909,14.7917381 113,16.9771617 113,17.9972827 C113,21.8099505 110.045403,23 106.384035,23 L98,23 L98,6 L106.384035,6 C109.86871,6 112.469922,7.5062595 112.469922,10.9301265 Z" id="Fill-7"></path>
                    <polygon id="Fill-8" points="119.219957 20.0369747 128 20.0369747 128 23 116 23 116 6 119.219957 6"></polygon>
                    <path d="M138.012756,20.8503273 C142.243614,20.8503273 143.745362,17.4931911 143.745362,14.4478394 C143.745362,11.480876 142.042928,8.2015386 138.087588,8.12315042 C134.482599,8.12315042 132.254638,10.8555387 132.254638,14.3694513 C132.254638,17.4407358 133.78133,20.8503273 138.012756,20.8503273 M147,14.3953842 C147,19.1587927 144.246512,24 138.012756,24 C131.853831,24 129,19.3927785 129,14.6040264 C129,8.85163011 132.980284,5 138.087588,5 C143.995937,5.0777988 147,9.73688619 147,14.3953842" id="Fill-9"></path>
                    <path d="M158.31845,24 C151.788198,24 149,19.3149797 149,14.6040264 C149,9.84120731 151.938358,5 158.31845,5 C160.729541,5 162.965446,5.91059962 164.773622,7.7848435 L162.563313,9.9973943 C161.383079,8.82628657 159.850764,8.27933741 158.31845,8.27933741 C154.04856,8.27933741 152.265411,11.5586748 152.265411,14.6040264 C152.265411,17.6234451 153.998507,20.7725285 158.31845,20.7725285 C159.850764,20.7725285 161.558834,20.1477805 162.739069,18.9248069 L165,21.2929553 C163.191255,23.1671992 160.855244,24 158.31845,24" id="Fill-10"></path>
                    <polygon id="Fill-11" points="13 14.3385824 13 19.4435642 21.8492053 14.4486201 21.8492053 24 21.8492053 23.9994525 21.8492053 24 26 21.6563617 26 12.1049818 26 10.7949312 26 7"></polygon>
                    <polygon id="Fill-12" points="13 14.3385824 13 19.4435642 4.15079468 14.4486201 4.15079468 24 4.15079468 23.9994525 4.15079468 24 0 21.6563617 0 12.1049818 0 10.7949312 0 7"></polygon>
                    <polygon id="Fill-13" points="6 25.1292529 9.85074158 23 13 24.7414942 16.1492584 23 20 25.1292529 13 29"></polygon>
                    <path d="M13,0 C10.8483089,1.32966479 8.42799969,2.82575821 6,4.32655633 C7.2958487,5.12753087 9.06740956,6.22254894 10.3253551,7 L13,5.34688734 L15.6746449,7 C16.9325904,6.22254894 18.7041513,5.12753087 20,4.32655633 C17.5720003,2.82575821 15.1516911,1.32966479 13,0" id="Fill-14"></path>
                </g>
            </g>
        </g>
    </g>
</svg>