<?xml version="1.0" encoding="utf-8"?>
<!-- Generator: Adobe Illustrator 24.0.0, SVG Export Plug-In . SVG Version: 6.00 Build 0)  -->
<svg width="156.5" height="29" version="1.1" id="Layer_1" xmlns="http://www.w3.org/2000/svg" xmlns:xlink="http://www.w3.org/1999/xlink" x="0px" y="0px"
	 viewBox="0 0 156.5 29" style="enable-background:new 0 0 156.5 29;" xml:space="preserve">
<style type="text/css">
	.st0{opacity:0.28;fill:#00ACFF;}
	.st1{fill:#0072F1;}
	.st2{fill:#12100E;}
</style>
<title>11A6165F-3562-4752-A9EA-7B3ADE079E73</title>
<desc>Created with sketchtool.</desc>
<g>
	<g>
		<g>
			<rect x="31.1" y="2" transform="matrix(-0.9135 -0.4067 0.4067 -0.9135 59.5035 41.6479)" class="st0" width="6.1" height="25"/>
			<g>
				<circle class="st1" cx="39.3" cy="3.1" r="3.1"/>
			</g>
			<g>
				<circle class="st1" cx="29.1" cy="25.9" r="3.1"/>
			</g>
		</g>
		<g>
			<rect x="5.1" y="2" transform="matrix(-0.9135 -0.4067 0.4067 -0.9135 9.7148 31.065)" class="st1" width="6.1" height="25"/>
			<g>
				<circle class="st1" cx="13.2" cy="3.1" r="3.1"/>
			</g>
			<g>
				<circle class="st1" cx="3.1" cy="25.9" r="3.1"/>
			</g>
		</g>
		<g>

				<rect x="20.6" y="2.5" transform="matrix(-0.9135 -0.4067 0.4067 -0.9135 41.8034 26.4544)" class="st1" width="6.1" height="12.5"/>
			<g>
				<circle class="st1" cx="26.3" cy="3.1" r="3.1"/>
			</g>
			<g>
				<circle class="st1" cx="21.2" cy="14.5" r="3.1"/>
			</g>
		</g>
	</g>
	<g>
		<g>
			<path class="st2" d="M54.6,12h2.8v1.8h0c0.3-0.6,0.7-1.1,1.3-1.5c0.6-0.4,1.4-0.7,2.3-0.7c1.9,0,3.1,0.7,3.7,2.2
				c0.4-0.8,1-1.3,1.6-1.7c0.6-0.4,1.4-0.5,2.3-0.5c0.8,0,1.5,0.1,2,0.4c0.5,0.3,1,0.6,1.3,1.1c0.3,0.5,0.6,1,0.7,1.6
				c0.1,0.6,0.2,1.3,0.2,2v7H70v-6.7c0-0.4,0-0.7-0.1-1c-0.1-0.3-0.2-0.6-0.3-0.9c-0.2-0.3-0.4-0.5-0.7-0.6
				c-0.3-0.1-0.6-0.2-1.1-0.2c-0.5,0-0.8,0.1-1.2,0.3c-0.3,0.2-0.6,0.4-0.8,0.7c-0.2,0.3-0.4,0.6-0.4,1c-0.1,0.4-0.1,0.7-0.1,1.1
				v6.4h-3v-7c0-0.7-0.2-1.3-0.5-1.8c-0.3-0.4-0.8-0.7-1.5-0.7c-0.5,0-0.9,0.1-1.2,0.2c-0.3,0.2-0.6,0.4-0.8,0.7
				c-0.2,0.3-0.4,0.6-0.5,1c-0.1,0.4-0.1,0.7-0.1,1.1v6.4h-2.9V12z"/>
			<path class="st2" d="M78.2,18.9c0.1,0.9,0.4,1.6,1,2.1c0.6,0.5,1.3,0.7,2.1,0.7c0.7,0,1.4-0.2,1.9-0.5c0.5-0.3,0.9-0.7,1.3-1.1
				l2.1,1.6c-0.7,0.9-1.5,1.5-2.3,1.8c-0.9,0.4-1.7,0.5-2.7,0.5c-0.9,0-1.7-0.1-2.5-0.4s-1.5-0.7-2-1.3c-0.6-0.5-1-1.2-1.4-2
				c-0.3-0.8-0.5-1.6-0.5-2.5s0.2-1.8,0.5-2.5c0.3-0.8,0.8-1.4,1.4-2c0.6-0.5,1.3-1,2-1.3c0.8-0.3,1.6-0.4,2.5-0.4
				c0.8,0,1.6,0.1,2.2,0.4c0.7,0.3,1.3,0.7,1.7,1.2c0.5,0.5,0.9,1.2,1.1,2c0.3,0.8,0.4,1.7,0.4,2.7v0.8H78.2z M84.2,16.7
				c0-0.9-0.3-1.6-0.8-2.1c-0.5-0.5-1.3-0.8-2.2-0.8c-0.9,0-1.6,0.3-2.1,0.8c-0.5,0.5-0.8,1.2-0.9,2H84.2z"/>
			<path class="st2" d="M99.1,22L99.1,22c-0.5,0.7-1,1.2-1.8,1.6C96.6,23.9,95.8,24,95,24c-0.9,0-1.7-0.2-2.4-0.5
				c-0.7-0.3-1.3-0.8-1.8-1.3c-0.5-0.6-0.9-1.2-1.2-2c-0.3-0.8-0.4-1.6-0.4-2.4c0-0.9,0.1-1.7,0.4-2.4c0.3-0.8,0.7-1.4,1.2-2
				c0.5-0.6,1.1-1,1.8-1.3c0.7-0.3,1.5-0.5,2.3-0.5c0.6,0,1,0.1,1.5,0.2c0.4,0.1,0.8,0.3,1.1,0.4c0.3,0.2,0.6,0.4,0.8,0.6
				c0.2,0.2,0.4,0.4,0.6,0.6h0.1V5.2h3v18.6h-2.8V22z M92.1,17.9c0,0.5,0.1,0.9,0.2,1.3c0.2,0.4,0.4,0.8,0.7,1.1
				c0.3,0.3,0.7,0.6,1.1,0.8c0.4,0.2,0.9,0.3,1.5,0.3c0.5,0,1-0.1,1.5-0.3c0.4-0.2,0.8-0.5,1.1-0.8c0.3-0.3,0.5-0.7,0.7-1.1
				c0.2-0.4,0.2-0.9,0.2-1.3c0-0.5-0.1-0.9-0.2-1.3c-0.2-0.4-0.4-0.8-0.7-1.1c-0.3-0.3-0.7-0.6-1.1-0.8c-0.4-0.2-0.9-0.3-1.5-0.3
				c-0.5,0-1,0.1-1.5,0.3c-0.4,0.2-0.8,0.5-1.1,0.8c-0.3,0.3-0.5,0.7-0.7,1.1C92.2,16.9,92.1,17.4,92.1,17.9z"/>
			<path class="st2" d="M104.6,7.9c0-0.5,0.2-0.9,0.5-1.2c0.4-0.4,0.8-0.5,1.3-0.5c0.5,0,1,0.2,1.4,0.5c0.4,0.3,0.6,0.8,0.6,1.3
				s-0.2,0.9-0.6,1.3c-0.4,0.3-0.8,0.5-1.4,0.5c-0.5,0-1-0.2-1.3-0.5S104.6,8.4,104.6,7.9z M105,12h2.9v11.8H105V12z"/>
			<path class="st2" d="M111.2,5.2h3v8.3h0.1c0.1-0.2,0.3-0.4,0.6-0.6c0.2-0.2,0.5-0.4,0.8-0.6c0.3-0.2,0.7-0.3,1.1-0.4
				c0.4-0.1,0.9-0.2,1.5-0.2c0.8,0,1.6,0.2,2.3,0.5c0.7,0.3,1.3,0.8,1.8,1.3c0.5,0.6,0.9,1.2,1.2,2s0.4,1.6,0.4,2.4
				c0,0.9-0.1,1.7-0.4,2.4c-0.3,0.8-0.6,1.4-1.2,2c-0.5,0.6-1.1,1-1.8,1.3c-0.7,0.3-1.5,0.5-2.4,0.5c-0.8,0-1.6-0.2-2.3-0.5
				c-0.7-0.3-1.3-0.9-1.7-1.6h0v1.8h-2.8V5.2z M121,17.9c0-0.5-0.1-0.9-0.2-1.3c-0.2-0.4-0.4-0.8-0.7-1.1c-0.3-0.3-0.7-0.6-1.1-0.8
				c-0.4-0.2-0.9-0.3-1.5-0.3c-0.5,0-1,0.1-1.5,0.3c-0.4,0.2-0.8,0.5-1.1,0.8c-0.3,0.3-0.5,0.7-0.7,1.1c-0.2,0.4-0.2,0.9-0.2,1.3
				c0,0.5,0.1,0.9,0.2,1.3c0.2,0.4,0.4,0.8,0.7,1.1c0.3,0.3,0.7,0.6,1.1,0.8c0.4,0.2,0.9,0.3,1.5,0.3c0.5,0,1-0.1,1.5-0.3
				c0.4-0.2,0.8-0.5,1.1-0.8c0.3-0.3,0.5-0.7,0.7-1.1C120.9,18.8,121,18.3,121,17.9z"/>
			<path class="st2" d="M126.1,5.2h2.9v18.6h-2.9V5.2z"/>
			<path class="st2" d="M131.1,17.9c0-0.9,0.2-1.8,0.5-2.5c0.3-0.8,0.8-1.4,1.4-2c0.6-0.5,1.3-1,2-1.3c0.8-0.3,1.6-0.4,2.5-0.4
				c0.9,0,1.7,0.1,2.5,0.4c0.8,0.3,1.5,0.7,2,1.3c0.6,0.5,1,1.2,1.4,2c0.3,0.8,0.5,1.6,0.5,2.5s-0.2,1.8-0.5,2.5
				c-0.3,0.8-0.8,1.4-1.4,2c-0.6,0.5-1.3,1-2,1.3s-1.6,0.4-2.5,0.4c-0.9,0-1.7-0.1-2.5-0.4s-1.5-0.7-2-1.3c-0.6-0.5-1-1.2-1.4-2
				C131.3,19.6,131.1,18.8,131.1,17.9z M134.1,17.9c0,0.5,0.1,0.9,0.2,1.3c0.2,0.4,0.4,0.8,0.7,1.1c0.3,0.3,0.7,0.6,1.1,0.8
				c0.4,0.2,0.9,0.3,1.5,0.3c0.5,0,1-0.1,1.5-0.3c0.4-0.2,0.8-0.5,1.1-0.8c0.3-0.3,0.5-0.7,0.7-1.1c0.2-0.4,0.2-0.9,0.2-1.3
				c0-0.5-0.1-0.9-0.2-1.3c-0.2-0.4-0.4-0.8-0.7-1.1c-0.3-0.3-0.7-0.6-1.1-0.8c-0.4-0.2-0.9-0.3-1.5-0.3c-0.5,0-1,0.1-1.5,0.3
				c-0.4,0.2-0.8,0.5-1.1,0.8c-0.3,0.3-0.5,0.7-0.7,1.1C134.2,16.9,134.1,17.4,134.1,17.9z"/>
			<path class="st2" d="M154.5,15.5c-0.3-0.4-0.7-0.6-1.1-0.9c-0.4-0.2-0.8-0.3-1.2-0.3c-0.5,0-1,0.1-1.5,0.3
				c-0.4,0.2-0.8,0.5-1.1,0.8c-0.3,0.3-0.5,0.7-0.7,1.1c-0.2,0.4-0.2,0.9-0.2,1.3c0,0.5,0.1,0.9,0.2,1.3c0.2,0.4,0.4,0.8,0.7,1.1
				c0.3,0.3,0.7,0.6,1.1,0.8c0.4,0.2,0.9,0.3,1.5,0.3c0.5,0,0.9-0.1,1.3-0.3c0.4-0.2,0.7-0.5,1-0.8l2,2.1c-0.3,0.3-0.6,0.5-1,0.8
				c-0.4,0.2-0.8,0.4-1.2,0.5c-0.4,0.1-0.8,0.2-1.1,0.3c-0.4,0.1-0.7,0.1-0.9,0.1c-0.9,0-1.7-0.1-2.5-0.4s-1.5-0.7-2-1.3
				c-0.6-0.5-1-1.2-1.4-2c-0.3-0.8-0.5-1.6-0.5-2.5s0.2-1.8,0.5-2.5c0.3-0.8,0.8-1.4,1.4-2c0.6-0.5,1.3-1,2-1.3
				c0.8-0.3,1.6-0.4,2.5-0.4c0.8,0,1.5,0.1,2.3,0.4c0.8,0.3,1.4,0.7,2,1.4L154.5,15.5z"/>
		</g>
	</g>
</g>
</svg>
