<?xml version="1.0" encoding="utf-8"?>
<!-- Generator: Adobe Illustrator 24.0.0, SVG Export Plug-In . SVG Version: 6.00 Build 0)  -->
<svg width="91.7" height="17" version="1.1" id="Layer_1" xmlns="http://www.w3.org/2000/svg" xmlns:xlink="http://www.w3.org/1999/xlink" x="0px" y="0px"
	 viewBox="0 0 91.7 17" style="enable-background:new 0 0 91.7 17;" xml:space="preserve">
<style type="text/css">
	.st0{fill:#12100E;}
</style>
<title>F4575E35-51D3-441D-B73D-9ACEACF16FA4</title>
<desc>Created with sketchtool.</desc>
<g>
	<g>
		<path class="st0" d="M0,6.1h2.5v1.7h0c0.2-0.5,0.6-0.9,1.1-1.3C4.2,6,4.9,5.8,5.8,5.8c1.7,0,2.8,0.7,3.3,2
			c0.4-0.7,0.9-1.2,1.4-1.5c0.6-0.3,1.3-0.5,2.1-0.5c0.7,0,1.3,0.1,1.8,0.4c0.5,0.2,0.9,0.6,1.2,1c0.3,0.4,0.5,0.9,0.7,1.4
			c0.1,0.6,0.2,1.1,0.2,1.8v6.3h-2.7v-6c0-0.3,0-0.6-0.1-0.9c-0.1-0.3-0.2-0.6-0.3-0.8c-0.1-0.2-0.3-0.4-0.6-0.5
			c-0.3-0.1-0.6-0.2-1-0.2c-0.4,0-0.8,0.1-1.1,0.2c-0.3,0.2-0.5,0.4-0.7,0.6S9.8,9.6,9.7,10c-0.1,0.3-0.1,0.7-0.1,1v5.8H6.9v-6.3
			c0-0.7-0.1-1.2-0.4-1.6C6.2,8.4,5.7,8.2,5.1,8.2C4.6,8.2,4.3,8.3,4,8.5C3.7,8.6,3.4,8.8,3.2,9.1C3,9.3,2.9,9.6,2.8,9.9
			c-0.1,0.3-0.1,0.7-0.1,1v5.8H0V6.1z"/>
		<path class="st0" d="M21.2,12.4c0.1,0.8,0.4,1.4,0.9,1.9c0.5,0.4,1.2,0.7,1.9,0.7c0.7,0,1.2-0.1,1.7-0.4c0.5-0.3,0.8-0.6,1.2-1
			l1.9,1.4c-0.6,0.8-1.3,1.3-2.1,1.6C26,16.8,25.2,17,24.3,17c-0.8,0-1.5-0.1-2.3-0.4c-0.7-0.3-1.3-0.6-1.8-1.1
			c-0.5-0.5-0.9-1.1-1.2-1.8c-0.3-0.7-0.5-1.4-0.5-2.3c0-0.8,0.2-1.6,0.5-2.3c0.3-0.7,0.7-1.3,1.2-1.8c0.5-0.5,1.1-0.9,1.8-1.1
			c0.7-0.3,1.5-0.4,2.3-0.4c0.7,0,1.4,0.1,2,0.4c0.6,0.3,1.1,0.6,1.6,1.1c0.4,0.5,0.8,1.1,1,1.8c0.2,0.7,0.4,1.5,0.4,2.5v0.7H21.2z
			 M26.6,10.4c0-0.8-0.3-1.4-0.7-1.8c-0.5-0.5-1.1-0.7-2-0.7c-0.8,0-1.4,0.2-1.9,0.7c-0.5,0.5-0.7,1.1-0.9,1.8H26.6z"/>
		<path class="st0" d="M40,15.1L40,15.1c-0.4,0.6-0.9,1.1-1.6,1.4c-0.6,0.3-1.4,0.4-2.1,0.4c-0.8,0-1.6-0.1-2.2-0.4
			s-1.2-0.7-1.6-1.2c-0.5-0.5-0.8-1.1-1-1.8c-0.2-0.7-0.4-1.4-0.4-2.2c0-0.8,0.1-1.5,0.4-2.2c0.3-0.7,0.6-1.3,1.1-1.8
			c0.4-0.5,1-0.9,1.6-1.2c0.6-0.3,1.3-0.4,2.1-0.4c0.5,0,0.9,0.1,1.3,0.2c0.4,0.1,0.7,0.2,1,0.4c0.3,0.2,0.5,0.3,0.8,0.5
			c0.2,0.2,0.4,0.4,0.5,0.5h0.1V0h2.7v16.7H40V15.1z M33.8,11.4c0,0.4,0.1,0.8,0.2,1.2s0.3,0.7,0.6,1c0.3,0.3,0.6,0.5,1,0.7
			c0.4,0.2,0.8,0.3,1.3,0.3c0.5,0,0.9-0.1,1.3-0.3c0.4-0.2,0.7-0.4,1-0.7c0.3-0.3,0.5-0.6,0.6-1c0.1-0.4,0.2-0.8,0.2-1.2
			c0-0.4-0.1-0.8-0.2-1.2c-0.1-0.4-0.3-0.7-0.6-1c-0.3-0.3-0.6-0.5-1-0.7c-0.4-0.2-0.8-0.3-1.3-0.3c-0.5,0-0.9,0.1-1.3,0.3
			c-0.4,0.2-0.7,0.4-1,0.7c-0.3,0.3-0.5,0.6-0.6,1C33.8,10.6,33.8,11,33.8,11.4z"/>
		<path class="st0" d="M45,2.5c0-0.4,0.2-0.8,0.5-1.1c0.3-0.3,0.7-0.5,1.2-0.5s0.9,0.2,1.2,0.5c0.3,0.3,0.5,0.7,0.5,1.1
			s-0.2,0.8-0.5,1.1c-0.3,0.3-0.7,0.5-1.2,0.5s-0.9-0.2-1.2-0.5S45,2.9,45,2.5z M45.4,6.1H48v10.6h-2.7V6.1z"/>
		<path class="st0" d="M51,0h2.7v7.5h0.1c0.1-0.2,0.3-0.4,0.5-0.5c0.2-0.2,0.5-0.4,0.8-0.5c0.3-0.2,0.6-0.3,1-0.4
			c0.4-0.1,0.8-0.2,1.3-0.2c0.8,0,1.4,0.1,2.1,0.4C60,6.6,60.6,7,61,7.5c0.5,0.5,0.8,1.1,1.1,1.8c0.3,0.7,0.4,1.4,0.4,2.2
			c0,0.8-0.1,1.5-0.4,2.2c-0.2,0.7-0.6,1.3-1,1.8c-0.5,0.5-1,0.9-1.7,1.2C58.7,16.9,58,17,57.2,17c-0.8,0-1.5-0.1-2.1-0.4
			c-0.6-0.3-1.2-0.8-1.5-1.4h0v1.6H51V0z M59.8,11.4c0-0.4-0.1-0.8-0.2-1.2c-0.1-0.4-0.3-0.7-0.6-1c-0.3-0.3-0.6-0.5-1-0.7
			c-0.4-0.2-0.8-0.3-1.3-0.3c-0.5,0-0.9,0.1-1.3,0.3c-0.4,0.2-0.7,0.4-1,0.7c-0.3,0.3-0.5,0.6-0.6,1c-0.1,0.4-0.2,0.8-0.2,1.2
			c0,0.4,0.1,0.8,0.2,1.2c0.1,0.4,0.3,0.7,0.6,1c0.3,0.3,0.6,0.5,1,0.7c0.4,0.2,0.8,0.3,1.3,0.3c0.5,0,0.9-0.1,1.3-0.3
			c0.4-0.2,0.7-0.4,1-0.7c0.3-0.3,0.5-0.6,0.6-1C59.7,12.2,59.8,11.8,59.8,11.4z"/>
		<path class="st0" d="M64.4,0H67v16.7h-2.7V0z"/>
		<path class="st0" d="M68.9,11.4c0-0.8,0.2-1.6,0.5-2.3c0.3-0.7,0.7-1.3,1.2-1.8c0.5-0.5,1.1-0.9,1.8-1.1c0.7-0.3,1.5-0.4,2.3-0.4
			c0.8,0,1.5,0.1,2.3,0.4c0.7,0.3,1.3,0.6,1.8,1.1c0.5,0.5,0.9,1.1,1.2,1.8c0.3,0.7,0.5,1.4,0.5,2.3c0,0.8-0.2,1.6-0.5,2.3
			c-0.3,0.7-0.7,1.3-1.2,1.8c-0.5,0.5-1.1,0.9-1.8,1.1c-0.7,0.3-1.5,0.4-2.3,0.4c-0.8,0-1.5-0.1-2.3-0.4c-0.7-0.3-1.3-0.6-1.8-1.1
			c-0.5-0.5-0.9-1.1-1.2-1.8C69,13,68.9,12.3,68.9,11.4z M71.6,11.4c0,0.4,0.1,0.8,0.2,1.2s0.3,0.7,0.6,1c0.3,0.3,0.6,0.5,1,0.7
			c0.4,0.2,0.8,0.3,1.3,0.3c0.5,0,0.9-0.1,1.3-0.3c0.4-0.2,0.7-0.4,1-0.7c0.3-0.3,0.5-0.6,0.6-1c0.1-0.4,0.2-0.8,0.2-1.2
			c0-0.4-0.1-0.8-0.2-1.2c-0.1-0.4-0.3-0.7-0.6-1c-0.3-0.3-0.6-0.5-1-0.7c-0.4-0.2-0.8-0.3-1.3-0.3c-0.5,0-0.9,0.1-1.3,0.3
			c-0.4,0.2-0.7,0.4-1,0.7c-0.3,0.3-0.5,0.6-0.6,1C71.6,10.6,71.6,11,71.6,11.4z"/>
		<path class="st0" d="M89.9,9.3c-0.3-0.3-0.6-0.6-1-0.8c-0.3-0.2-0.7-0.3-1-0.3c-0.5,0-0.9,0.1-1.3,0.3c-0.4,0.2-0.7,0.4-1,0.7
			c-0.3,0.3-0.5,0.6-0.6,1c-0.1,0.4-0.2,0.8-0.2,1.2c0,0.4,0.1,0.8,0.2,1.2c0.1,0.4,0.3,0.7,0.6,1c0.3,0.3,0.6,0.5,1,0.7
			c0.4,0.2,0.8,0.3,1.3,0.3c0.4,0,0.8-0.1,1.2-0.3c0.4-0.2,0.7-0.4,0.9-0.7l1.8,1.9c-0.3,0.3-0.6,0.5-0.9,0.7
			c-0.3,0.2-0.7,0.3-1.1,0.5c-0.4,0.1-0.7,0.2-1,0.3C88.4,17,88.1,17,87.9,17c-0.8,0-1.5-0.1-2.3-0.4c-0.7-0.3-1.3-0.6-1.8-1.1
			c-0.5-0.5-0.9-1.1-1.2-1.8c-0.3-0.7-0.5-1.4-0.5-2.3c0-0.8,0.2-1.6,0.5-2.3c0.3-0.7,0.7-1.3,1.2-1.8c0.5-0.5,1.1-0.9,1.8-1.1
			c0.7-0.3,1.5-0.4,2.3-0.4c0.7,0,1.4,0.1,2,0.4c0.7,0.3,1.3,0.7,1.8,1.2L89.9,9.3z"/>
	</g>
</g>
</svg>
