<svg xmlns="http://www.w3.org/2000/svg" xmlns:xlink="http://www.w3.org/1999/xlink" width="165" height="32" viewBox="0 0 165 32">
    <defs>
        <path id="a" d="M0 31.596h164.686V.286H0z"/>
    </defs>
    <g fill="none" fill-rule="evenodd">
        <path fill="#FFF" d="M44.733 19.459h-.657l-5.635-7.649v12.764h-3.335V7.021h3.84l5.534 7.548 5.534-7.548h3.816v17.553h-3.336V11.836zM57.34 24.574V7.021h12.873v3.21h-9.654v4.037h9.31v3.085h-9.31v3.961h9.654v3.26z"/>
        <g>
            <path fill="#FFF" d="M80.588 21.646c3.872 0 5.435-2.79 5.435-5.579 0-2.814-1.588-5.678-5.435-5.678h-3.574v11.257h3.574zm8.686-5.579c0 4.398-2.68 8.77-8.686 8.77h-6.825V7.247h6.825c6.03 0 8.686 4.398 8.686 8.82z"/>
            <mask id="b" fill="#fff">
                <use xlink:href="#a"/>
            </mask>
            <path fill="#FFF" d="M91.964 24.837h3.25V7.247h-3.25zM107.136 14.309c2.06 0 2.73-.88 2.73-1.885 0-.805-.646-2.161-2.73-2.161h-5.014v4.046h5.014zm0 7.437c1.315 0 3.25-.452 3.25-2.11 0-1.608-1.935-2.413-3.25-2.413h-5.014v4.523h5.014zm5.98-9.398c0 1.382-.645 2.664-2.258 3.393 2.035.603 2.78 2.864 2.78 3.92 0 3.944-2.904 5.176-6.502 5.176h-8.24V7.247h8.24c3.424 0 5.98 1.558 5.98 5.101zM119.832 21.772h8.934v3.065h-12.21V7.247h3.276zM138.07 22.199c4.195 0 5.684-3.242 5.684-6.182 0-2.864-1.688-6.03-5.61-6.106-3.573 0-5.781 2.638-5.781 6.03 0 2.966 1.513 6.258 5.708 6.258m8.909-6.232c0 4.599-2.73 9.272-8.91 9.272-6.104 0-8.934-4.448-8.934-9.071 0-5.554 3.946-9.273 9.009-9.273 5.857.076 8.835 4.574 8.835 9.072M158.085 25.24c-6.452 0-9.207-4.524-9.207-9.072 0-4.599 2.903-9.272 9.207-9.272 2.382 0 4.592.879 6.378 2.688l-2.184 2.136c-1.166-1.13-2.68-1.658-4.194-1.658-4.219 0-5.98 3.166-5.98 6.106 0 2.914 1.712 5.955 5.98 5.955 1.514 0 3.201-.603 4.368-1.784l2.233 2.287c-1.786 1.81-4.095 2.613-6.601 2.613M13.4 15.951v5.45l9.12-5.332v10.195l4.278-2.501V8.119zM13.4 15.951v5.45l-9.121-5.332v10.195L0 23.763V8.119zM6.045 27.297l4.045-2.365 3.31 1.934 3.308-1.934 4.045 2.365-7.354 4.299zM13.4.285l-7.355 4.3 4.544 2.656 2.81-1.643 2.81 1.643 4.544-2.656L13.4.285" mask="url(#b)"/>
        </g>
    </g>
</svg>
