<?xml version="1.0" encoding="utf-8"?>
<!-- Generator: Adobe Illustrator 24.0.0, SVG Export Plug-In . SVG Version: 6.00 Build 0)  -->
<svg width="169" height="32" version="1.1" id="Layer_1" xmlns="http://www.w3.org/2000/svg" xmlns:xlink="http://www.w3.org/1999/xlink" x="0px" y="0px"
	 viewBox="0 0 169 32" style="enable-background:new 0 0 169 32;" xml:space="preserve">
<style type="text/css">
	.st0{opacity:0.6;fill:#FFFFFF;}
	.st1{fill:#FFFFFF;}
</style>
<g>
	<g>
		<g>

				<rect x="33.6" y="2.5" transform="matrix(-0.9135 -0.4067 0.4067 -0.9135 64.1033 45.6256)" class="st0" width="6.6" height="27"/>
			<g>
				<circle class="st1" cx="42.4" cy="3.7" r="3.3"/>
			</g>
			<g>
				<circle class="st1" cx="31.4" cy="28.3" r="3.3"/>
			</g>
		</g>
		<g>

				<rect x="5.5" y="2.5" transform="matrix(-0.9135 -0.4067 0.4067 -0.9135 10.3484 34.1996)" class="st1" width="6.6" height="27"/>
			<g>
				<circle class="st1" cx="14.3" cy="3.7" r="3.3"/>
			</g>
			<g>
				<circle class="st1" cx="3.3" cy="28.3" r="3.3"/>
			</g>
		</g>
		<g>

				<rect x="22.3" y="3.1" transform="matrix(-0.9135 -0.4067 0.4067 -0.9135 44.9932 29.2218)" class="st1" width="6.6" height="13.5"/>
			<g>
				<circle class="st1" cx="28.3" cy="3.7" r="3.3"/>
			</g>
			<g>
				<circle class="st1" cx="22.9" cy="16" r="3.3"/>
			</g>
		</g>
	</g>
	<g>
		<g>
			<path class="st1" d="M59,13.2h3v2h0.1c0.3-0.6,0.7-1.1,1.4-1.6c0.6-0.5,1.5-0.7,2.5-0.7c2,0,3.3,0.8,4,2.4c0.5-0.8,1-1.4,1.7-1.8
				c0.7-0.4,1.5-0.6,2.5-0.6c0.8,0,1.6,0.1,2.2,0.4c0.6,0.3,1.1,0.7,1.4,1.2c0.4,0.5,0.6,1.1,0.8,1.7c0.2,0.7,0.2,1.4,0.2,2.1V26
				h-3.2v-7.2c0-0.4,0-0.8-0.1-1.1c-0.1-0.4-0.2-0.7-0.4-1c-0.2-0.3-0.4-0.5-0.7-0.6c-0.3-0.2-0.7-0.2-1.2-0.2
				c-0.5,0-0.9,0.1-1.3,0.3c-0.3,0.2-0.6,0.4-0.8,0.7c-0.2,0.3-0.4,0.7-0.5,1.1c-0.1,0.4-0.1,0.8-0.1,1.2V26h-3.2v-7.6
				c0-0.8-0.2-1.4-0.5-1.9c-0.3-0.5-0.9-0.7-1.7-0.7c-0.5,0-1,0.1-1.3,0.3c-0.4,0.2-0.7,0.4-0.9,0.7c-0.2,0.3-0.4,0.6-0.5,1
				c-0.1,0.4-0.2,0.8-0.2,1.2v7H59V13.2z"/>
			<path class="st1" d="M84.4,20.7c0.1,1,0.5,1.7,1.1,2.2c0.6,0.5,1.4,0.8,2.3,0.8c0.8,0,1.5-0.2,2-0.5c0.5-0.3,1-0.7,1.4-1.2
				l2.3,1.7c-0.7,0.9-1.6,1.6-2.5,2c-0.9,0.4-1.9,0.6-2.9,0.6c-1,0-1.9-0.2-2.7-0.5c-0.8-0.3-1.6-0.8-2.2-1.4
				c-0.6-0.6-1.1-1.3-1.5-2.1c-0.4-0.8-0.5-1.7-0.5-2.7s0.2-1.9,0.5-2.7c0.4-0.8,0.9-1.5,1.5-2.1c0.6-0.6,1.4-1,2.2-1.4
				c0.8-0.3,1.8-0.5,2.7-0.5c0.9,0,1.7,0.2,2.4,0.5c0.7,0.3,1.4,0.8,1.9,1.3c0.5,0.6,0.9,1.3,1.2,2.2c0.3,0.9,0.4,1.8,0.4,3v0.9
				H84.4z M90.9,18.3c0-0.9-0.3-1.7-0.9-2.2c-0.6-0.5-1.4-0.8-2.4-0.8c-1,0-1.7,0.3-2.3,0.8c-0.6,0.5-0.9,1.3-1,2.2H90.9z"/>
			<path class="st1" d="M107,24.1L107,24.1c-0.5,0.8-1.1,1.3-1.9,1.7c-0.8,0.4-1.6,0.5-2.5,0.5c-1,0-1.9-0.2-2.6-0.5s-1.4-0.8-2-1.4
				c-0.5-0.6-1-1.3-1.2-2.1c-0.3-0.8-0.4-1.7-0.4-2.6c0-0.9,0.2-1.8,0.5-2.6s0.7-1.5,1.3-2.1c0.5-0.6,1.2-1.1,2-1.4
				c0.8-0.3,1.6-0.5,2.5-0.5c0.6,0,1.1,0.1,1.6,0.2c0.5,0.1,0.9,0.3,1.2,0.5c0.4,0.2,0.7,0.4,0.9,0.6c0.2,0.2,0.5,0.4,0.6,0.7h0.1
				V5.9h3.2V26h-3V24.1z M99.5,19.6c0,0.5,0.1,1,0.3,1.4c0.2,0.5,0.4,0.9,0.7,1.2c0.3,0.4,0.7,0.6,1.2,0.8c0.5,0.2,1,0.3,1.6,0.3
				c0.6,0,1.1-0.1,1.6-0.3c0.5-0.2,0.9-0.5,1.2-0.8c0.3-0.4,0.6-0.8,0.7-1.2c0.2-0.5,0.3-0.9,0.3-1.4c0-0.5-0.1-1-0.3-1.4
				c-0.2-0.5-0.4-0.9-0.7-1.2c-0.3-0.4-0.7-0.6-1.2-0.8c-0.5-0.2-1-0.3-1.6-0.3c-0.6,0-1.1,0.1-1.6,0.3c-0.5,0.2-0.9,0.5-1.2,0.8
				c-0.3,0.4-0.6,0.8-0.7,1.2C99.5,18.6,99.5,19.1,99.5,19.6z"/>
			<path class="st1" d="M112.9,8.9c0-0.5,0.2-1,0.6-1.3c0.4-0.4,0.9-0.6,1.4-0.6s1.1,0.2,1.5,0.5c0.4,0.4,0.6,0.8,0.6,1.4
				s-0.2,1-0.6,1.4c-0.4,0.4-0.9,0.5-1.5,0.5s-1.1-0.2-1.4-0.6S112.9,9.4,112.9,8.9z M113.4,13.2h3.2V26h-3.2V13.2z"/>
			<path class="st1" d="M120.1,5.9h3.2v8.9h0.1c0.2-0.2,0.4-0.4,0.6-0.7c0.2-0.2,0.5-0.4,0.9-0.6c0.4-0.2,0.8-0.4,1.2-0.5
				c0.5-0.1,1-0.2,1.6-0.2c0.9,0,1.7,0.2,2.5,0.5c0.8,0.3,1.4,0.8,2,1.4c0.5,0.6,1,1.3,1.3,2.1c0.3,0.8,0.5,1.7,0.5,2.6
				c0,0.9-0.1,1.8-0.4,2.6c-0.3,0.8-0.7,1.5-1.2,2.1c-0.5,0.6-1.2,1.1-2,1.4c-0.8,0.3-1.7,0.5-2.6,0.5c-0.9,0-1.7-0.2-2.5-0.5
				c-0.8-0.4-1.4-0.9-1.9-1.7h-0.1V26h-3V5.9z M130.7,19.6c0-0.5-0.1-1-0.3-1.4c-0.2-0.5-0.4-0.9-0.7-1.2c-0.3-0.4-0.7-0.6-1.2-0.8
				c-0.5-0.2-1-0.3-1.6-0.3c-0.6,0-1.1,0.1-1.6,0.3c-0.5,0.2-0.9,0.5-1.2,0.8c-0.3,0.4-0.6,0.8-0.7,1.2c-0.2,0.5-0.3,0.9-0.3,1.4
				c0,0.5,0.1,1,0.3,1.4c0.2,0.5,0.4,0.9,0.7,1.2c0.3,0.4,0.7,0.6,1.2,0.8c0.5,0.2,1,0.3,1.6,0.3c0.6,0,1.1-0.1,1.6-0.3
				c0.5-0.2,0.9-0.5,1.2-0.8c0.3-0.4,0.6-0.8,0.7-1.2C130.6,20.6,130.7,20.1,130.7,19.6z"/>
			<path class="st1" d="M136.1,5.9h3.2V26h-3.2V5.9z"/>
			<path class="st1" d="M141.6,19.6c0-1,0.2-1.9,0.5-2.7c0.4-0.8,0.9-1.5,1.5-2.1c0.6-0.6,1.4-1,2.2-1.4c0.8-0.3,1.8-0.5,2.7-0.5
				c1,0,1.9,0.2,2.7,0.5c0.8,0.3,1.6,0.8,2.2,1.4c0.6,0.6,1.1,1.3,1.5,2.1c0.4,0.8,0.5,1.7,0.5,2.7s-0.2,1.9-0.5,2.7
				c-0.4,0.8-0.9,1.5-1.5,2.1c-0.6,0.6-1.4,1-2.2,1.4c-0.8,0.3-1.8,0.5-2.7,0.5c-1,0-1.9-0.2-2.7-0.5c-0.8-0.3-1.6-0.8-2.2-1.4
				c-0.6-0.6-1.1-1.3-1.5-2.1C141.8,21.5,141.6,20.6,141.6,19.6z M144.8,19.6c0,0.5,0.1,1,0.3,1.4c0.2,0.5,0.4,0.9,0.7,1.2
				c0.3,0.4,0.7,0.6,1.2,0.8c0.5,0.2,1,0.3,1.6,0.3c0.6,0,1.1-0.1,1.6-0.3c0.5-0.2,0.9-0.5,1.2-0.8c0.3-0.4,0.6-0.8,0.7-1.2
				c0.2-0.5,0.3-0.9,0.3-1.4c0-0.5-0.1-1-0.3-1.4c-0.2-0.5-0.4-0.9-0.7-1.2c-0.3-0.4-0.7-0.6-1.2-0.8c-0.5-0.2-1-0.3-1.6-0.3
				c-0.6,0-1.1,0.1-1.6,0.3c-0.5,0.2-0.9,0.5-1.2,0.8c-0.3,0.4-0.6,0.8-0.7,1.2C144.9,18.6,144.8,19.1,144.8,19.6z"/>
			<path class="st1" d="M166.8,17.1c-0.4-0.4-0.8-0.7-1.2-0.9c-0.4-0.2-0.8-0.3-1.2-0.3c-0.6,0-1.1,0.1-1.6,0.3
				c-0.5,0.2-0.9,0.5-1.2,0.8c-0.3,0.4-0.6,0.8-0.7,1.2c-0.2,0.5-0.3,0.9-0.3,1.4c0,0.5,0.1,1,0.3,1.4c0.2,0.5,0.4,0.9,0.7,1.2
				c0.3,0.4,0.7,0.6,1.2,0.8c0.5,0.2,1,0.3,1.6,0.3c0.5,0,1-0.1,1.4-0.3c0.4-0.2,0.8-0.5,1.1-0.9l2.1,2.3c-0.3,0.3-0.7,0.6-1.1,0.8
				c-0.4,0.2-0.8,0.4-1.3,0.6s-0.8,0.2-1.2,0.3c-0.4,0.1-0.7,0.1-1,0.1c-1,0-1.9-0.2-2.7-0.5c-0.8-0.3-1.6-0.8-2.2-1.4
				c-0.6-0.6-1.1-1.3-1.5-2.1c-0.4-0.8-0.5-1.7-0.5-2.7s0.2-1.9,0.5-2.7c0.4-0.8,0.9-1.5,1.5-2.1c0.6-0.6,1.4-1,2.2-1.4
				c0.8-0.3,1.8-0.5,2.7-0.5c0.8,0,1.6,0.2,2.5,0.5c0.8,0.3,1.5,0.8,2.2,1.5L166.8,17.1z"/>
		</g>
	</g>
</g>
</svg>
