<svg xmlns="http://www.w3.org/2000/svg" width="312" height="279" viewBox="0 0 312 279">
    <g fill="none" fill-rule="evenodd">
        <path fill="#D3DFFF" d="M52.502 154h-22s-2.5 0-2.5 2.5V202s-.5 12 13.5 12h11.794s4.206-24 4.206-25-3-17-2-19-3-16-3-16"/>
        <path stroke="#397FF4" stroke-width="3" d="M52.502 154h-22s-2.5 0-2.5 2.5V202s-.5 12 13.5 12h11.794s4.206-24 4.206-25-3-17-2-19-3-16-3-16z"/>
        <path fill="#FFF" d="M220.5 2h-166c-1.65 0-3 1.35-3 3v202.167c-.973 2.692-3.566 6.333-10.5 6.333h22.167l-.011-.5H220.5c1.65 0 3-1.35 3-3V5c0-1.65-1.35-3-3-3"/>
        <path stroke="#397FF4" stroke-width="3" d="M220.5 2h-166c-1.65 0-3 1.35-3 3v202.167c-.973 2.692-3.566 6.333-10.5 6.333h22.167L220.5 213c1.65 0 3-1.35 3-3V5c0-1.65-1.35-3-3-3z"/>
        <path fill="#FFF" d="M271.367 236.35l-30.07-22.103 8.29-11.281 30.071 22.104z"/>
        <path stroke="#397FF4" stroke-width="3" d="M271.367 236.35l-30.07-22.103 8.29-11.281 30.071 22.104z"/>
        <path fill="#D3DFFF" d="M305.62 240.215l-43.374-32.687-13.299 17.527 43.433 32.73a10.949 10.949 0 0 0 6.611 2.216c3.336 0 6.632-1.512 8.794-4.381 3.656-4.851 2.687-11.75-2.165-15.405"/>
        <path stroke="#397FF4" stroke-width="3" d="M305.62 240.215l-43.374-32.687-13.299 17.527 43.433 32.73a10.949 10.949 0 0 0 6.611 2.216c3.336 0 6.632-1.512 8.794-4.381 3.656-4.851 2.687-11.75-2.165-15.405z"/>
        <path fill="#D3DFFF" d="M255.5 229.5l14-18"/>
        <path stroke="#397FF4" stroke-width="3" d="M255.5 229.5l14-18"/>
        <path fill="#F5F8FF" d="M260.5 169.5c0 37.003-29.997 67-67 67s-67-29.997-67-67 29.997-67 67-67 67 29.997 67 67"/>
        <path stroke="#397FF4" stroke-width="3" d="M260.5 169.5c0 37.003-29.997 67-67 67s-67-29.997-67-67 29.997-67 67-67 67 29.997 67 67z"/>
        <path fill="#FFF" d="M247.1 169.5c0 29.603-23.997 53.6-53.6 53.6-29.602 0-53.6-23.997-53.6-53.6s23.998-53.6 53.6-53.6c29.603 0 53.6 23.997 53.6 53.6"/>
        <path stroke="#397FF4" stroke-width="3" d="M247.1 169.5c0 29.603-23.997 53.6-53.6 53.6-29.602 0-53.6-23.997-53.6-53.6s23.998-53.6 53.6-53.6c29.603 0 53.6 23.997 53.6 53.6z"/>
        <text fill="#3565E3" fill-opacity=".5" font-family="Helvetica-Bold, Helvetica" font-size="100" font-weight="bold" transform="translate(2 2)">
            <tspan x="160" y="205">?</tspan>
        </text>
        <path stroke="#397FF4" stroke-linecap="square" stroke-width="3" d="M67.5 27.5h140.032"/>
        <path stroke="#397FF4" stroke-linecap="square" stroke-opacity=".5" stroke-width="4" d="M2.5 261.5h216.002M150.5 276.5h122.002"/>
        <path stroke="#397FF4" stroke-linecap="square" stroke-width="3" d="M67.5 42.5h140.032M67.5 57.5h91M67.5 72.5h91"/>
    </g>
</svg>
