<?xml version="1.0" encoding="UTF-8"?>
<svg width="30px" height="28px" viewBox="0 0 30 28" version="1.1" xmlns="http://www.w3.org/2000/svg" xmlns:xlink="http://www.w3.org/1999/xlink">
    <!-- Generator: sketchtool 50.2 (55047) - http://www.bohemiancoding.com/sketch -->
    <title>4EC7DEC8-4BE5-4B95-92F3-0205DA079DEC</title>
    <desc>Created with sketchtool.</desc>
    <defs></defs>
    <g id="Page-1" stroke="none" stroke-width="1" fill="none" fill-rule="evenodd">
        <g id="assets" transform="translate(-255.000000, -276.000000)" fill="#000000">
            <g id="ico_account" transform="translate(255.000000, 276.000000)">
                <g id="Outline">
                    <g id="Group" fill-rule="nonzero">
                        <path d="M28.4210526,6.65777778 L28.4210526,3.11111111 C28.4210526,1.4 27,0 25.2631579,0 L3.15789474,0 C1.40526316,0 0,1.4 0,3.11111111 L0,24.8888889 C0,26.6 1.40526316,28 3.15789474,28 L25.2631579,28 C27,28 28.4210526,26.6 28.4210526,24.8888889 L28.4210526,21.3422222 C29.3526316,20.7977778 30,19.8177778 30,18.6666667 L30,9.33333333 C30,8.18222222 29.3526316,7.20222222 28.4210526,6.65777778 Z M26.8421053,9.33333333 L26.8421053,18.6666667 L15.7894737,18.6666667 L15.7894737,9.33333333 L26.8421053,9.33333333 Z M3.15789474,24.8888889 L3.15789474,3.11111111 L25.2631579,3.11111111 L25.2631579,6.22222222 L15.7894737,6.22222222 C14.0526316,6.22222222 12.6315789,7.62222222 12.6315789,9.33333333 L12.6315789,18.6666667 C12.6315789,20.3777778 14.0526316,21.7777778 15.7894737,21.7777778 L25.2631579,21.7777778 L25.2631579,24.8888889 L3.15789474,24.8888889 Z" id="Shape"></path>
                        <ellipse id="Oval" cx="20.5263158" cy="14" rx="2.36842105" ry="2.33333333"></ellipse>
                    </g>
                </g>
            </g>
        </g>
    </g>
</svg>