<svg xmlns="http://www.w3.org/2000/svg" xmlns:xlink="http://www.w3.org/1999/xlink" width="30" height="28" viewBox="0 0 30 28">
    <defs>
        <path id="a" d="M0 0h30v28H0z"/>
    </defs>
    <g fill="none" fill-rule="evenodd">
        <mask id="b" fill="#fff">
            <use xlink:href="#a"/>
        </mask>
        <path fill="#000" d="M27.932 18.3H16.353V9.106h11.579V18.3zm-2.292 7.61H2.068V2.09H25.64v4.927h-9.7c-.91 0-1.655.752-1.655 1.671v10.03c0 .92.745 1.672 1.655 1.672h9.7v5.52zm2.706-18.893h-.639V1.672c0-.92-.744-1.672-1.654-1.672H1.654C.744 0 0 .752 0 1.672v24.656C0 27.248.744 28 1.654 28h24.4c.909 0 1.653-.752 1.653-1.672V20.39h.639c.91 0 1.654-.752 1.654-1.672V8.688c0-.919-.744-1.671-1.654-1.671z" mask="url(#b)"/>
        <path fill="#000" d="M21.964 11.586c-1.48 0-2.678 1.08-2.678 2.414 0 1.333 1.199 2.414 2.678 2.414 1.48 0 2.679-1.08 2.679-2.414 0-1.333-1.2-2.414-2.679-2.414" mask="url(#b)"/>
    </g>
</svg>
