<?xml version="1.0" encoding="UTF-8"?>
<svg width="23px" height="23px" viewBox="0 0 23 23" version="1.1" xmlns="http://www.w3.org/2000/svg" xmlns:xlink="http://www.w3.org/1999/xlink">
    <!-- Generator: sketchtool 50.2 (55047) - http://www.bohemiancoding.com/sketch -->
    <title>23E3ADDA-45C9-4D29-938A-FF2741C2051A</title>
    <desc>Created with sketchtool.</desc>
    <defs></defs>
    <g id="Symbols" stroke="none" stroke-width="1" fill="none" fill-rule="evenodd">
        <g id="ico_language" fill="#000000">
            <path d="M16.5137128,13.79976 C16.6057112,13.0407732 16.67471,12.2817864 16.67471,11.4998 C16.67471,10.7178136 16.6057112,9.9588268 16.5137128,9.19984 L20.4006452,9.19984 C20.584642,9.9358272 20.69964,10.7063138 20.69964,11.4998 C20.69964,12.2932862 20.584642,13.0637728 20.4006452,13.79976 L16.5137128,13.79976 Z M14.4770982,20.1936488 C15.1682362,18.917171 15.697227,17.537195 16.0640706,16.09972 L19.4576616,16.09972 C18.3536808,17.997187 16.5930614,19.4691614 14.4770982,20.1936488 Z M14.1896032,13.79976 L8.8088468,13.79976 C8.70419862,13.0407732 8.62485,12.2817864 8.62485,11.4998 C8.62485,10.7178136 8.70419862,9.947327 8.8088468,9.19984 L14.1896032,9.19984 C14.2931014,9.947327 14.37475,10.7178136 14.37475,11.4998 C14.37475,12.2817864 14.2931014,13.0407732 14.1896032,13.79976 Z M11.4998,20.6536408 C10.5453166,19.2736648 9.7978296,17.7441914 9.30218822,16.09972 L13.6962618,16.09972 C13.2017704,17.7441914 12.4542834,19.2736648 11.4998,20.6536408 Z M6.93322942,6.89988 L3.5419384,6.89988 C4.6459192,4.9909132 6.40423862,3.5304386 8.5213518,2.8059512 C7.8313638,4.082429 7.302373,5.462405 6.93322942,6.89988 Z M3.5419384,16.09972 L6.93322942,16.09972 C7.302373,17.537195 7.8313638,18.917171 8.5213518,20.1936488 C6.40423862,19.4691614 4.6459192,18.0086868 3.5419384,16.09972 Z M2.59780482,13.79976 C2.414958,13.0637728 2.29996,12.2932862 2.29996,11.4998 C2.29996,10.7063138 2.414958,9.9358272 2.59780482,9.19984 L6.4858872,9.19984 C6.3938888,9.9588268 6.32489,10.7178136 6.32489,11.4998 C6.32489,12.2817864 6.3938888,13.0407732 6.4858872,13.79976 L2.59780482,13.79976 Z M11.4998,2.3459592 C12.4542834,3.7259352 13.2017704,5.2554086 13.6962618,6.89988 L9.30218822,6.89988 C9.7978296,5.2554086 10.5453166,3.7259352 11.4998,2.3459592 Z M19.4576616,6.89988 L16.0640706,6.89988 C15.697227,5.462405 15.1682362,4.082429 14.4770982,2.8059512 C16.5930614,3.5304386 18.3536808,5.002413 19.4576616,6.89988 Z M11.4883002,0 C5.1404106,0 0,5.1519104 0,11.4998 C0,17.8476896 5.1404106,22.9996 11.4883002,22.9996 C17.8465396,22.9996 22.9996,17.8476896 22.9996,11.4998 C22.9996,5.1519104 17.8465396,0 11.4883002,0 Z" id="Fill-1"></path>
        </g>
    </g>
</svg>