<?xml version="1.0" encoding="UTF-8"?>
<svg width="120px" height="17px" viewBox="0 0 120 17" version="1.1" xmlns="http://www.w3.org/2000/svg" xmlns:xlink="http://www.w3.org/1999/xlink">
    <!-- Generator: sketchtool 50.2 (55047) - http://www.bohemiancoding.com/sketch -->
    <title>F4575E35-51D3-441D-B73D-9ACEACF16FA4</title>
    <desc>Created with sketchtool.</desc>
    <defs>
        <polygon id="path-1" points="0 17 120 17 120 0 0 0"></polygon>
    </defs>
    <g id="Page-1" stroke="none" stroke-width="1" fill="none" fill-rule="evenodd">
        <g id="assets" transform="translate(-646.000000, -226.000000)">
            <g id="Logo_footer" transform="translate(646.000000, 226.000000)">
                <g id="Logo">
                    <polygon id="Fill-1" fill="#12100E" points="13.5356283 0 8.51136505 6.87985356 3.48695024 0 0 0 0 16 3.02795358 16 3.02795358 4.36569509 8.14419803 11.3371894 8.74063609 11.3371894 13.9714403 4.38849206 13.9714403 16 17 16 17 0"></polygon>
                    <polygon id="Fill-2" fill="#12100E" points="20 16 20 0 32 0 32 2.92568409 23.0001134 2.92568409 23.0001134 6.60577467 31.6796289 6.60577467 31.6796289 9.41702208 23.0001134 9.41702208 23.0001134 13.0285714 32 13.0285714 32 16"></polygon>
                    <path d="M41.160148,13.0971127 C44.6546367,13.0971127 46.0658071,10.5595773 46.0658071,8.02264578 C46.0658071,5.4630685 44.632148,2.85714286 41.160148,2.85714286 L37.9346367,2.85714286 L37.9346367,13.0971127 L41.160148,13.0971127 Z M49,8.02264578 C49,12.0227968 46.5811255,16 41.160148,16 L35,16 L35,0 L41.160148,0 C46.6031704,0 49,4.00015097 49,8.02264578 Z" id="Fill-3" fill="#12100E"></path>
                    <mask id="mask-2" fill="white">
                        <use xlink:href="#path-1"></use>
                    </mask>
                    <g id="Clip-6"></g>
                    <polygon id="Fill-5" fill="#12100E" mask="url(#mask-2)" points="52 16 55 16 55 0 52 0"></polygon>
                    <path d="M66.8249122,6.42294773 C68.7812569,6.42294773 69.4176489,5.62279675 69.4176489,4.70836007 C69.4176489,3.9769013 68.8046079,2.74300811 66.8249122,2.74300811 L62.0641151,2.74300811 L62.0641151,6.42294773 L66.8249122,6.42294773 Z M66.8249122,13.1884507 C68.0740337,13.1884507 69.9126896,12.7770523 69.9126896,11.2685412 C69.9126896,9.8056237 68.0740337,9.07431591 66.8249122,9.07431591 L62.0641151,9.07431591 L62.0641151,13.1884507 L66.8249122,13.1884507 Z M72.5049593,4.63981883 C72.5049593,5.89711266 71.8923854,7.06276656 70.36025,7.72568409 C72.2930881,8.27446688 73,10.3311568 73,11.291338 C73,14.8799396 70.2424054,16 66.8249122,16 L59,16 L59,0 L66.8249122,0 C70.0773918,0 72.5049593,1.41732402 72.5049593,4.63981883 Z" id="Fill-7" fill="#12100E" mask="url(#mask-2)"></path>
                    <polygon id="Fill-8" fill="#12100E" mask="url(#mask-2)" points="77.9515365 13.2113984 86 13.2113984 86 16 75 16 75 0 77.9515365 0"></polygon>
                    <path d="M95.5119471,14.1822023 C99.5077397,14.1822023 100.926554,11.1781307 100.926554,8.45354687 C100.926554,5.79848896 99.3184603,2.86440463 95.5826926,2.79472494 C92.1780074,2.79472494 90.0739148,5.23935939 90.0739148,8.38340572 C90.0739148,11.1313699 91.5158422,14.1822023 95.5119471,14.1822023 M104,8.4067861 C104,12.6684763 101.399283,17 95.5119471,17 C89.6955124,17 87,12.8779768 87,8.5932139 C87,3.44645313 90.7591934,0 95.5826926,0 C101.162997,0.069679696 104,4.23846363 104,8.4067861" id="Fill-9" fill="#12100E" mask="url(#mask-2)"></path>
                    <path d="M113.7363,17 C107.613828,17 105,12.8083351 105,8.59328996 C105,4.33148451 107.755058,0 113.7363,0 C115.9969,0 118.09294,0.814922051 119.788156,2.49183413 L117.716225,4.4713041 C116.609567,3.42350323 115.172855,2.9342116 113.7363,2.9342116 C109.733044,2.9342116 108.061469,5.86826938 108.061469,8.59328996 C108.061469,11.2944689 109.686227,14.1122411 113.7363,14.1122411 C115.172855,14.1122411 116.773971,13.5535781 117.880785,12.4590168 L120,14.5781526 C118.304783,16.254757 116.114642,17 113.7363,17" id="Fill-10" fill="#12100E" mask="url(#mask-2)"></path>
                </g>
            </g>
        </g>
    </g>
</svg>